<svg xmlns="http://www.w3.org/2000/svg" viewBox="0 0 32 24"><path fill="#d8dfe0" d="M29 2a3 3 0 0 1 3 3v14a3 3 0 0 1-3 3H3a3 3 0 0 1-3-3V5a3 3 0 0 1 3-3h26zm1 7H2v10c0 .5.4 1 .9 1H29c.5 0 1-.4 1-.9V9zm-2.5 6c.3 0 .5.2.5.5v2c0 .3-.2.5-.5.5h-3a.5.5 0 0 1-.5-.5v-2c0-.3.2-.5.5-.5h3zM6 17c.2 0 .4.2.5.4v.1c0 .3-.2.5-.5.5H4a.5.5 0 0 1-.5-.5c0-.3.2-.5.5-.5h2zm4 0c.2 0 .4.2.5.4v.1c0 .3-.2.5-.5.5H8a.5.5 0 0 1-.5-.5c0-.3.2-.5.5-.5h2zm4 0c.2 0 .4.2.5.4v.1c0 .3-.2.5-.5.5h-2a.5.5 0 0 1-.5-.5c0-.3.2-.5.5-.5h2zm4 0c.2 0 .4.2.5.4v.1c0 .3-.2.5-.5.5h-2a.5.5 0 0 1-.5-.5c0-.3.2-.5.5-.5h2zm2-2c.2 0 .4.2.5.4v.1c0 .3-.2.5-.5.5H4a.5.5 0 0 1-.5-.5c0-.3.2-.5.5-.5h16zm9-11H3a1 1 0 0 0-1 .9V7h28V5c0-.5-.4-1-.9-1H29z"/></svg>