<svg xmlns="http://www.w3.org/2000/svg" viewBox="0 0 117 42"><g fill="none" fill-rule="evenodd"><path d="M110 16.6c0-1.3 1-2.3 2.1-2.3 1.2 0 2.2 1 2.2 2.3 0 1.3-1 2.3-2.2 2.3-1.2 0-2.2-1-2.2-2.3zm2.1 1.8c1 0 1.7-.8 1.7-1.8s-.8-1.8-1.7-1.8c-.9 0-1.7.8-1.7 1.8s.8 1.8 1.7 1.8zm-.3-.8h-.4v-2h1.3l.2.6c0 .2-.1.4-.3.5l.3.9h-.5l-.3-.8h-.3v.8zm0-1.1h.5l.2-.3c0-.1 0-.2-.2-.2h-.5v.5zM78.6 1.2l-.6 4c-1.3-.8-2.2-1-3.2-1-2.8 0-4.7 2.7-4.7 6.7 0 2.8 1.3 4.4 3.4 4.4 1 0 2-.3 3.1-1l-.6 4.2c-1.4.4-2.2.5-3.2.5-4 0-6.5-3-6.5-7.8 0-6.4 3.4-11 8.3-11a6 6 0 0 1 1.6.2l1.6.4.8.4zM66.5 3.9a2 2 0 0 0-.4 0c-1.2 0-1.9.6-3 2.3l.3-2.2h-3.3l-2.3 14.7h3.7c1.3-9 1.7-10.5 3.4-10.5h.3c.3-1.8.8-3 1.4-4.3h-.1zm-22 14.6a8 8 0 0 1-2.6.5c-1.8 0-2.9-1-2.9-3.2l.1-1.3.3-1.5.1-1.1 1.6-10h3.7L44.3 4h2l-.6 3.6h-1.9l-1 6.1v.6c0 .8.4 1.1 1.3 1.1l1-.1-.6 3.2zM30.1 8.7c0 1.8.9 3.1 2.8 4 1.5.8 1.7 1 1.7 1.7 0 .9-.7 1.3-2.1 1.3-1 0-2.1-.2-3.3-.6l-.5 3.4h.2l.7.2 1 .1 2 .2c3.8 0 5.5-1.6 5.5-5 0-2-.7-3.2-2.5-4-1.6-.8-1.7-1-1.7-1.6 0-.8.6-1.2 1.8-1.2.7 0 1.6 0 2.6.2l.5-3.4c-1-.2-2.4-.3-3.2-.3-4 0-5.5 2.2-5.5 5zm77.7 10h-3.5l.2-1.4c-1 1.1-2 1.6-3.4 1.6-2.6 0-4.4-2.4-4.4-6.1 0-4.9 2.7-9 6-9 1.4 0 2.5.6 3.5 2l.8-5.2h3.6l-2.8 18.1zm-5.4-3.4c1.7 0 3-2 3-5 0-1.9-.8-2.9-2-2.9-1.7 0-2.9 2-2.9 5 0 1.9.7 2.9 1.9 2.9zm-46.3 3.1a12 12 0 0 1-3.7.6c-4.1 0-6.2-2.3-6.2-6.6 0-5 2.7-8.8 6.4-8.8 3 0 5 2.1 5 5.4 0 1-.2 2.1-.5 3.6h-7.3v.5c0 1.7 1 2.6 3.2 2.6 1.3 0 2.4-.3 3.8-1l-.7 3.7zm-2-8.8V9c0-1.2-.6-1.9-1.7-1.9-1.2 0-2 1-2.3 2.6h4zm-38.7 9.1h-3.6l2-13.9-4.6 13.9H6.7L6.4 4.9 4.2 18.7H.8L3.6.6h5.3v11.2L12.7.6h5.7zm9.4-6.5a6 6 0 0 0-.8-.1c-2 0-3.1.8-3.1 2.2 0 1 .5 1.5 1.3 1.5 1.5 0 2.6-1.5 2.6-3.6zm2.7 6.5h-3v-1.5a4.5 4.5 0 0 1-3.8 1.8c-2 0-3.4-1.7-3.4-4 0-3.6 2.4-5.7 6.5-5.7l1.5.1.1-1c0-1-.6-1.3-2.3-1.3-1 0-2.3.2-3 .4l-.6.2h-.3l.5-3.2c1.8-.6 3-.8 4.4-.8 3.1 0 4.8 1.5 4.8 4.3 0 .7 0 1.3-.3 3l-.8 5.1-.1 1v.7l-.2.5v.4zM85 12.2a6 6 0 0 0-.9-.1c-2 0-3.1.8-3.1 2.2 0 1 .5 1.5 1.3 1.5 1.5 0 2.6-1.5 2.6-3.6zm2.6 6.5h-3v-1.5a4.5 4.5 0 0 1-3.8 1.8c-2 0-3.4-1.7-3.4-4 0-3.6 2.4-5.7 6.5-5.7l1.5.1.1-1c0-1-.6-1.3-2.3-1.3-1 0-2.3.2-3 .4l-.6.2h-.3l.5-3.2c1.8-.6 3-.8 4.4-.8C87.3 3.7 89 5.2 89 8c0 .7 0 1.3-.3 3l-.8 5.1v1l-.2.7v.9zM97.8 3.9h-.3c-1.2 0-2 .6-3 2.3l.3-2.2h-3.3l-2.3 14.7H93c1.3-9 1.7-10.5 3.4-10.5h.3c.3-1.8.7-3 1.4-4.3h-.2z" fill="#EC2127"/><g fill="#F89620"><path d="M82.5 33c0 3.3-1 5.3-2.7 5.3-1.2 0-1.9-1.3-1.9-3.3 0-2.3 1-5 2.8-5 1.3 0 1.8 1.5 1.8 3zm3.6 0c0-3.7-1.9-6.5-5.3-6.5-4 0-6.5 3.5-6.5 8.6 0 3.7 1.5 6.7 5.3 6.7 3.7 0 6.5-2.6 6.5-8.8z"/><path d="m75.5 23.9-.5 3.9a6 6 0 0 0-3.1-1c-2.6 0-4.4 2.8-4.4 6.8 0 2.7 1.2 4.4 3.2 4.4a6 6 0 0 0 3-1l-.6 4.2c-1.3.4-2.1.5-3 .5-3.8 0-6-3-6-7.8 0-6.5 3.1-11 7.6-11 .6 0 1.2 0 1.6.2l1.4.4.8.4zm-22.6 2.6h-.4c-1.1 0-1.7.6-2.8 2.4l.3-2.2h-3l-2.2 14.7h3.4c1.3-9 1.6-10.6 3.2-10.6h.3c.3-1.7.7-3 1.3-4.2h-.1zm44.6 14.7h-3.2l.2-1.4c-1 1.1-2 1.6-3.2 1.6-2.5 0-4.1-2.4-4.1-6 0-5 2.5-9.1 5.5-9.1 1.4 0 2.4.6 3.3 2l.8-5.2h3.3l-2.6 18.1zm-5-3.4c1.6 0 2.7-2 2.7-5 0-1.9-.6-2.9-1.8-2.9-1.6 0-2.7 2-2.7 5 0 1.9.6 2.9 1.8 2.9zm-71.7 3.4c-1.2.4-2.3.6-3.5.6-3.8 0-5.8-2.3-5.8-6.6 0-5 2.5-8.8 6-8.8 2.8 0 4.6 2 4.6 5.3 0 1.1-.1 2.2-.4 3.7h-6.9v.4c0 1.7 1 2.6 3 2.6 1.2 0 2.3-.3 3.6-1l-.6 3.8zm-2-8.8.1-.7c0-1.2-.6-2-1.6-2-1.1 0-1.9 1-2.2 2.7H19zm42.7 8.8c-1.2.4-2.3.6-3.5.6-3.9 0-5.8-2.3-5.8-6.6 0-5 2.5-8.8 6-8.8 2.8 0 4.6 2 4.6 5.3 0 1.1-.2 2.2-.5 3.7h-6.8v.4c0 1.7 1 2.6 3 2.6 1.2 0 2.3-.3 3.5-1l-.5 3.8zm-2-8.8v-.7c0-1.2-.5-2-1.5-2-1.1 0-1.9 1-2.2 2.7h3.8zm49.7 8.8c-1.2.4-2.3.6-3.5.6-3.8 0-5.8-2.3-5.8-6.6 0-5 2.5-8.8 6-8.8 2.8 0 4.6 2 4.6 5.3 0 1.1-.1 2.2-.4 3.7h-6.9v.4c0 1.7 1 2.6 3 2.6 1.2 0 2.3-.3 3.6-1l-.6 3.8zm-2-8.8.1-.7c0-1.2-.6-2-1.6-2-1.1 0-1.9 1-2.2 2.7h3.8zm-96.5-5.2a5 5 0 0 0-2.9-.8c-1.4 0-2.5.3-2.5 1.7 0 2.6 5 1.7 5 7.3 0 5-3.3 6.4-6.3 6.4-1.3 0-2.9-.5-4-1l.8-3.7c.7.6 2 1 3.2 1 1.1 0 2.8-.3 2.8-2.1 0-3-5-1.9-5-7.1 0-4.8 2.9-6.2 5.7-6.2 1.6 0 3.1.3 4 .8l-.8 3.7zm20.1 14c-.7.3-1.6.5-3 .5-3 0-4.9-3-4.9-6.6 0-4.8 2.7-8.7 6.7-8.7.8 0 2.1.4 3.2 1L32 31c-.7-.4-1.5-.8-2.3-.8-1.8 0-3.1 1.7-3.1 4.7 0 1.8 1 3.2 2.4 3.2 1 0 1.6-.2 2.3-.6l-.5 3.8zm12.8-3.7-.4 3.8h-3.3l.3-2.4c-1.1 1.6-2.2 2.7-4 2.7-2.1 0-3.2-2.2-3.2-5 0-1 0-1.6.2-3.1l1-6.8h3.6l-1 6.8-.2 2.2c0 .9.4 1.8 1.4 1.7 1.5 0 2.4-1.8 2.6-4l1-6.7h3.6l-1.6 10.8zm69 3.6h-.5v-2.4h-.8v-.6h2v.6h-.7zm3.7 0h-.5v-2.5l-.5 2.5h-.6l-.4-2.5h-.1v2.5h-.5v-3h.8l.5 2.4.5-2.4h.8z"/></g></g></svg>