<svg xmlns="http://www.w3.org/2000/svg" xmlns:xlink="http://www.w3.org/1999/xlink" viewBox="0 0 24 30"><defs><path id="a" d="M6.61.2c3.2 0 6.4 2 6.4 5.99v12.8H.22V6.18c0-4 3.2-6 6.4-6zm0 2.05c-1.18 0-2.3.37-3.09 1.02A3.6 3.6 0 0 0 2.26 6.2v10.74h8.7V6.2A3.6 3.6 0 0 0 9.7 3.27a4.89 4.89 0 0 0-3.09-1.02z"/><path id="c" d="M15.83 12.13H2.16L.07 10.04v-7.8L2.16.17h13.67l2.09 2.09v7.8l-2.09 2.08z"/><path id="e" d="M13.37 2v8.28l-1.85 1.85H.15L11.4.16h.12l1.85 1.85z"/><path id="g" d="m2.58 2.89 1.44 2.85H.2l1.45-2.86A1.46 1.46 0 0 1 2.12.05a1.46 1.46 0 1 1 .46 2.84z"/><path id="i" d="M.11 3.79V.74l.6-.6.6.6.58-.6.6.6.6-.6.59.6.6-.6.6.6v3.05z"/><path id="k" d="M4.3 0a4.1 4.1 0 0 1 4.1 4.1 4.1 4.1 0 0 1-4.1 4.09 4.1 4.1 0 0 1-4.1-4.1A4.1 4.1 0 0 1 4.3.01zm0 2.45c-.91 0-1.65.74-1.65 1.65a1.65 1.65 0 0 0 3.3 0c0-.91-.75-1.65-1.65-1.65z"/></defs><g fill="none" fill-rule="evenodd"><g transform="translate(5.43 .71)"><mask id="b" fill="#fff"><use xlink:href="#a"/></mask><path fill="#003035" d="M-.88-.89H14.1v20.96H-.88z" mask="url(#b)"/></g><g transform="translate(3.06 7.64)"><mask id="d" fill="#fff"><use xlink:href="#c"/></mask><path fill="#FFCE32" d="M-1.01-.92h20v14.13H-1z" mask="url(#d)"/></g><g transform="translate(7.6 7.64)"><mask id="f" fill="#fff"><use xlink:href="#e"/></mask><path fill="#D8B87A" d="M-.93-.92h15.38v14.13H-.93z" mask="url(#f)"/></g><g transform="translate(9.98 10.89)"><mask id="h" fill="#fff"><use xlink:href="#g"/></mask><path fill="#003035" d="M-.88-1.03H5.1v7.86h-6z" mask="url(#h)"/></g><g transform="translate(18.64 21.71)"><mask id="j" fill="#fff"><use xlink:href="#i"/></mask><path fill="#3A77FF" d="M-.97-.94h6.94v5.81H-.98z" mask="url(#j)"/></g><path fill="#003035" fill-rule="nonzero" d="M23.54 24.65v1.03H8.65v-1.03z"/><g transform="translate(.46 21.06)"><mask id="l" fill="#fff"><use xlink:href="#k"/></mask><path fill="#FFCE32" d="M-.88-1.08H9.47V9.27H-.88z" mask="url(#l)"/></g></g></svg>