<svg xmlns="http://www.w3.org/2000/svg" fill-rule="evenodd" clip-rule="evenodd" image-rendering="optimizeQuality" shape-rendering="geometricPrecision" text-rendering="geometricPrecision" viewBox="0 0 33028 10986"><path d="M23690 3872v4117h-999V3868h-1107v-875h3220v879zM6004 2990v5001H5004V3869H3005v4122H2002V2990zm1992 2310h373c187 0 427 0 637-158 180-143 270-367 270-585 0-277-135-465-277-570-202-143-457-157-690-157h-313v1470zm456-2309c562 0 952 60 1320 382 405 360 510 847 510 1207 0 195-30 735-412 1117-277 277-690 442-1267 442h-606v1852h-999V2990h1455zm12132 4820c-300 157-697 292-1237 292-877 0-1410-300-1829-697-577-555-802-1177-802-1912 0-907 375-1559 802-1957 502-472 1125-660 1837-660 353 0 773 60 1230 307v1140c-457-525-1027-562-1207-562-1005 0-1657 825-1657 1747 0 1110 855 1710 1695 1710 465 0 877-202 1170-547v1140zm5220 180h999V2990h-999zm2998-2691h373c187 0 427 0 637-158 180-143 270-367 270-585 0-277-135-465-277-570-202-143-457-157-690-157h-313v1470zm456-2309c562 0 952 60 1320 382 405 360 510 847 510 1207 0 195-30 735-412 1117-277 277-690 442-1267 442h-606v1852h-999V2990h1455z" class="fil0"/><path fill="#ffcc2b" fill-rule="nonzero" d="M12996 5497v-6a506 506 0 1 1 1012 0c0 278-225 504-502 505v683c655-2 1185-533 1185-1188 0-656-532-1188-1188-1188s-1188 532-1188 1188v6h683z"/><path d="M15252 4632c127 259 199 551 199 859 0 1078-874 1953-1953 1953s-1953-874-1953-1953c0-1040 813-1889 1837-1949l487-746c-122-17-245-26-371-26-1503 0-2721 1218-2721 2721s1218 2721 2721 2721 2721-1218 2721-2721c0-586-186-1128-501-1572l-466 713z" class="fil0"/></svg>