<svg xmlns="http://www.w3.org/2000/svg" viewBox="0 0 512.023 512.023" style="enable-background:new 0 0 512.023 512.023" xml:space="preserve" width="512" height="512"><path style="fill:#002f34" d="m472.417 64.449-213.333-64a10.673 10.673 0 0 0-6.123 0l-213.333 64a10.668 10.668 0 0 0-7.616 10.219v234.667c0 94.315 143.829 178.219 220.843 202.197 2.083.655 4.317.655 6.4 0 76.928-23.979 220.757-107.883 220.757-202.197V74.667a10.668 10.668 0 0 0-7.595-10.218z" data-original="#2196F3" class="active-path" data-old_color="#2196F3"/><path style="fill:#fafafa" d="M234.678 341.334a10.663 10.663 0 0 1-7.552-3.115l-85.333-85.333c-4.092-4.237-3.975-10.99.262-15.083 4.134-3.992 10.687-3.992 14.82 0l77.803 77.781 141.781-141.781c4.093-4.237 10.845-4.355 15.083-.262 4.237 4.093 4.354 10.845.262 15.083-.086.089-.173.176-.262.262L242.209 338.219a10.669 10.669 0 0 1-7.531 3.115z" data-original="#FAFAFA" data-old_color="#FAFAFA"/></svg>