<svg viewBox="0 0 245.2 122.6" xmlns="http://www.w3.org/2000/svg"><g fill="#1d337a"><path d="M13.097 42.96 0 2.807h5.6l6.257 19.781c1.721 5.416 3.213 10.304 4.284 15.01h.122c1.132-4.652 2.8-9.716 4.583-14.955l6.793-19.836h5.538L18.818 42.96h-5.721M51.29 25.742c.068-3.336-1.369-8.521-7.267-8.521-5.3 0-7.62 4.887-8.04 8.521zm-15.367 3.756c.121 7.09 4.644 10.006 9.89 10.006 3.756 0 6.014-.658 7.986-1.492l.895 3.755c-1.85.834-5.003 1.79-9.592 1.79-8.881 0-14.183-5.843-14.183-14.54 0-8.698 5.125-15.545 13.519-15.545 9.415 0 11.924 8.284 11.924 13.578 0 1.07-.123 1.905-.183 2.447H35.924M60.47 23.118c0-3.39-.062-6.311-.238-8.996h4.59l.176 5.661h.237c1.308-3.87 4.467-6.311 7.986-6.311.59 0 1.017.06 1.484.176v4.948a7.737 7.737 0 0 0-1.79-.183c-3.688 0-6.304 2.8-7.023 6.732-.121.719-.244 1.553-.244 2.447V42.96h-5.179V23.118M77.803 14.123h5.254v28.831h-5.254zm5.844-8.1c.06 1.789-1.254 3.219-3.335 3.219-1.844 0-3.16-1.43-3.16-3.22 0-1.844 1.37-3.275 3.282-3.275 1.959 0 3.213 1.43 3.213 3.275M89.904 42.96V18.114H85.85v-3.993h4.054v-1.37c0-4.047.895-7.741 3.336-10.067C95.206.78 97.822.007 100.27.007c1.85 0 3.45.414 4.467.835l-.712 4.047c-.78-.36-1.85-.651-3.342-.651-4.46 0-5.593 3.932-5.593 8.338v1.546h6.963v3.993H95.09v24.844h-5.186M107.224 14.123h5.24v28.831h-5.24zm5.83-8.1c.068 1.789-1.255 3.219-3.335 3.219-1.844 0-3.16-1.43-3.16-3.22 0-1.844 1.377-3.275 3.282-3.275 1.958 0 3.213 1.43 3.213 3.275M137.063 25.742c.055-3.336-1.37-8.521-7.268-8.521-5.3 0-7.619 4.887-8.046 8.521zm-15.369 3.756c.123 7.09 4.645 10.006 9.89 10.006 3.757 0 6.015-.658 7.987-1.492l.894 3.755c-1.85.834-5.016 1.79-9.592 1.79-8.88 0-14.181-5.843-14.181-14.54 0-8.698 5.125-15.545 13.517-15.545 9.417 0 11.918 8.284 11.918 13.578 0 1.07-.116 1.905-.184 2.447h-20.249M165.903 25.864c0-.658-.06-1.553-.238-2.21-.773-3.335-3.641-6.074-7.565-6.074-5.424 0-8.637 4.766-8.637 11.145 0 5.836 2.853 10.656 8.521 10.656 3.505 0 6.725-2.318 7.681-6.257.178-.711.238-1.424.238-2.257zM171.149.666V35.51c0 2.563.055 5.478.23 7.45h-4.697l-.243-5.003h-.123c-1.607 3.213-5.119 5.654-9.83 5.654-6.968 0-12.324-5.897-12.324-14.656-.062-9.592 5.898-15.482 12.927-15.482 4.4 0 7.383 2.087 8.69 4.407h.124V.667h5.246M195.982 31.402c0 .651.122 1.309.244 1.905 1.01 3.634 4.041 6.136 7.857 6.136 5.485 0 8.76-4.468 8.76-11.078 0-5.775-2.986-10.724-8.576-10.724-3.573 0-6.91 2.44-7.987 6.433-.122.597-.298 1.31-.298 2.143zm-5.423 11.558c.123-1.972.238-4.887.238-7.45V.667h5.185v18.106h.122c1.844-3.213 5.179-5.3 9.83-5.3 7.151 0 12.209 5.958 12.155 14.71 0 10.304-6.494 15.429-12.929 15.429-4.174 0-7.51-1.607-9.653-5.417h-.175l-.245 4.766h-4.528M223.808 14.123l6.31 17.042c.659 1.905 1.378 4.169 1.846 5.898h.12c.544-1.729 1.133-3.94 1.851-6.02l5.715-16.921h5.545l-7.87 20.554c-3.75 9.89-6.31 14.954-9.884 18.051-2.563 2.258-5.125 3.152-6.432 3.397l-1.316-4.414c1.316-.413 3.037-1.247 4.59-2.562 1.429-1.133 3.213-3.152 4.413-5.837.237-.536.413-.948.413-1.247 0-.298-.121-.719-.36-1.37L218.087 14.12h5.72M86.955 62.632l-15.89 40.187-6.433-34.166c-.738-3.81-3.722-6.02-7.037-6.02H31.611l-.353 1.708c5.33 1.173 11.39 3.031 15.064 5.017 2.243 1.233 2.888 2.298 3.613 5.199l12.189 47.115h16.148l24.743-59.039h-16.06M109.557 62.632l-12.623 59.039h15.273l12.603-59.039h-15.253M144.85 78.997c.046-2.115 2.066-4.364 6.48-4.96 2.195-.28 8.217-.49 15.063 2.642l2.679-12.507c-3.668-1.336-8.413-2.63-14.284-2.63-15.103 0-25.714 8.04-25.815 19.538-.081 8.488 7.594 13.232 13.37 16.066 5.952 2.881 7.957 4.732 7.917 7.341-.026 3.961-4.745 5.695-9.125 5.763-7.686.122-12.14-2.068-15.7-3.714l-2.752 12.934c3.553 1.634 10.148 3.064 16.988 3.131 16.02 0 26.519-7.93 26.574-20.202.068-15.591-21.544-16.446-21.394-23.402M194.875 62.632c-2.936 0-5.41 1.702-6.509 4.332l-22.906 54.707h16.046l3.187-8.818h19.545l1.836 8.818h14.16l-12.318-59.038zm-5.796 38.133 8.115-22.175 4.568 22.175z"/></g></svg>